<?xml version="1.0" encoding="UTF-8"?>
<svg id="Layer_1" data-name="Layer 1" xmlns="http://www.w3.org/2000/svg" viewBox="0 0 3542.37 3525.49">
  <path d="m3435.48,0h-888c-59,0-106.89,47.85-106.89,106.89v70.01c0,59.04,47.88,106.89,106.89,106.89h502.09l-1031.96,1031.96c-.62.6-1.3,1.11-1.91,1.73l-244.51,244.52-244.51-244.52c-.61-.61-1.28-1.13-1.91-1.73L492.8,283.79h502.09c59,0,106.88-47.85,106.88-106.89v-70.01c0-59.04-47.88-106.89-106.88-106.89H106.88C47.88,0,0,47.85,0,106.89v888c0,59.03,47.88,106.88,106.88,106.88h70.01c59,0,106.89-47.86,106.89-106.88V476.12l1286.61,1286.63L283.78,3049.38v-518.78c0-59.04-47.88-106.89-106.89-106.89h-70.01c-59,0-106.88,47.85-106.88,106.89v888c0,59.03,47.88,106.88,106.88,106.88h888.01c59,0,106.88-47.86,106.88-106.88v-70.01c0-59.04-47.88-106.89-106.88-106.89h-502.09l976.68-976.67c.63-.6,1.3-1.12,1.92-1.74l299.79-299.8,299.79,299.8c.62.62,1.29,1.14,1.92,1.74l976.68,976.67h-502.09c-59,0-106.89,47.85-106.89,106.89v70.01c0,59.03,47.88,106.88,106.89,106.88h888c59.06,0,106.88-47.86,106.88-106.88v-888c0-59.04-47.83-106.89-106.88-106.89h-70.01c-59,0-106.89,47.85-106.89,106.89v518.78l-1286.61-1286.64L3258.58,476.12v518.78c0,59.03,47.88,106.88,106.89,106.88h70.01c59.06,0,106.88-47.86,106.88-106.88V106.89c0-59.04-47.83-106.89-106.88-106.89Z"/>
</svg>